<svg xmlns="http://www.w3.org/2000/svg" width="230" height="67" viewBox="0 0 230 67" fill="none"><path d="M28.6449 0.962891C20.4529 0.962891 12.7627 3.9603 6.7679 9.42616L1.04435 5.65566L0 23.8164L16.2484 15.638L11.1216 12.2744C16.0314 8.19193 22.1483 5.98117 28.6449 5.98117C43.8218 5.98117 56.1641 18.3234 56.1641 33.5003C56.1641 48.6773 43.8218 61.0195 28.6449 61.0195C25.6475 61.0195 22.7315 60.5448 19.9782 59.6497L16.5061 63.705C20.2901 65.224 24.3997 66.0378 28.6449 66.0378C46.5751 66.0378 61.1688 51.4441 61.1688 33.5003C61.1688 15.5566 46.5751 0.962891 28.6449 0.962891Z" fill="#9ACF84"></path><path d="M7.45947 58.1996C8.40888 59.0269 9.41253 59.8 10.4569 60.5052L14.2409 56.9789C13.3096 56.4002 12.4099 55.7673 11.5419 55.0801L7.45947 58.1996Z" fill="#9ACF84"></path><path d="M7.79875 51.4844L3.71631 54.414C4.5979 55.4719 5.5473 56.462 6.55096 57.3978L10.6198 54.3055C9.61618 53.4374 8.68034 52.488 7.79875 51.4844Z" fill="#9ACF84"></path><path d="M7.03908 50.5631C6.38806 49.7402 5.78225 48.8722 5.22165 47.959L0.962891 50.5902C1.58679 51.6029 2.25589 52.5704 2.9702 53.4927L7.03908 50.5631Z" fill="#9ACF84"></path><path d="M11.4878 61.1686C12.722 61.9417 14.0241 62.6334 15.3668 63.2302L18.7846 59.2155C17.5911 58.768 16.4383 58.2119 15.3125 57.6016L11.4878 61.1686Z" fill="#9ACF84"></path><path d="M41.0142 39.7537C41.0142 44.8669 37.0809 47.905 31.6829 48.5424V54.8356H26.6103V48.4611C22.772 47.905 19.0965 46.2639 16.3975 43.9853L19.0558 38.533C22.0939 41.232 26.4069 42.9681 29.5264 42.9681C32.2661 42.9681 33.9208 41.9509 33.9208 40.1334C33.9208 34.5591 18.1742 37.8142 18.1742 27.3436C18.1742 22.8271 21.47 19.7077 26.6103 18.8532V12.7363H31.6829V18.6905C35.1007 19.0295 38.3965 20.2095 40.8378 21.8099L38.2745 27.3436C35.1414 25.4855 31.4252 24.3055 29.0652 24.3055C26.8273 24.3055 25.3083 25.1057 25.3083 26.7061C25.3083 32.1584 41.0549 29.1203 41.0142 39.7537Z" fill="#9ACF84"></path><path d="M83.9678 26.2579L82.2046 30.0419C80.0617 28.767 77.5254 27.9668 75.9114 27.9668C74.3788 27.9668 73.3481 28.5093 73.3481 29.6079C73.3481 33.3377 84.1035 31.249 84.0763 38.5323C84.0763 42.4791 80.6449 44.622 76.1691 44.622C72.8462 44.622 69.5369 43.3471 67.2583 41.4076L69.0757 37.6914C71.1509 39.536 74.094 40.7159 76.2234 40.7159C78.1086 40.7159 79.2344 40.0242 79.2344 38.79C79.2344 34.9788 68.4654 37.2031 68.4654 30.0419C68.4654 26.3799 71.612 24.0742 76.2912 24.0742C79.1123 24.0742 81.9469 24.9422 83.9678 26.2579Z" fill="#7B7C7C"></path><path d="M104.57 27.479L101.911 30.7069C100.528 29.1201 98.5342 28.0757 96.6626 28.0757C93.1905 28.0757 90.5186 30.7612 90.5186 34.2875C90.5186 37.8003 93.1905 40.5129 96.6626 40.5129C98.48 40.5129 100.474 39.5906 101.911 38.153L104.597 41.069C102.454 43.2662 99.3751 44.6767 96.432 44.6767C90.3965 44.6767 85.8394 40.201 85.8394 34.3418C85.8394 28.5097 90.4914 24.1289 96.6083 24.1289C99.5243 24.1289 102.576 25.4309 104.57 27.479Z" fill="#7B7C7C"></path><path fill-rule="evenodd" clip-rule="evenodd" d="M111.094 40.5527L109.507 44.4724H104.801L113.576 24.2637H118.282L126.908 44.4724H122.026L120.439 40.5527H111.094ZM115.8 29.0378L112.599 36.8772H118.974L115.8 29.0378Z" fill="#7B7C7C"></path><path d="M146.846 44.4724V30.8553L141.489 42.4244H138.505L133.147 30.8553V44.4724H129.011V24.2637H134.124L140.01 36.6195L145.869 24.2637H150.942V44.4724H146.846Z" fill="#7B7C7C"></path><path d="M169.129 44.4724V36.511H159.974V44.4724H155.417V24.2637H159.974V32.6998H169.129V24.2637H173.686V44.4724H169.129Z" fill="#9BCF84"></path><path d="M182.692 28.0477V32.4421H192.444V36.2126H182.692V40.6884H193.827V44.4724H178.135V24.2637H193.515V28.0477H182.692Z" fill="#9BCF84"></path><path d="M210.632 40.4849V44.4724H197.408V24.2637H201.979V40.4849H210.632Z" fill="#9BCF84"></path><path fill-rule="evenodd" clip-rule="evenodd" d="M221.917 24.2637C227.057 24.2637 230 26.8135 230 31.2893C230 35.982 227.057 38.6946 221.917 38.6946H217.902V44.4724H213.345V24.2637H221.917ZM217.902 34.897H221.686C224.222 34.897 225.673 33.7306 225.673 31.4249C225.673 29.1735 224.222 28.0477 221.686 28.0477H217.902V34.897Z" fill="#9BCF84"></path></svg>