<svg xmlns="http://www.w3.org/2000/svg" width="62" height="67" viewBox="0 0 62 67" fill="none"><path d="M28.6449 0.962891C20.4529 0.962891 12.7627 3.9603 6.7679 9.42616L1.04435 5.65566L0 23.8164L16.2484 15.638L11.1216 12.2744C16.0314 8.19193 22.1483 5.98117 28.6449 5.98117C43.8218 5.98117 56.1641 18.3234 56.1641 33.5003C56.1641 48.6773 43.8218 61.0195 28.6449 61.0195C25.6475 61.0195 22.7315 60.5448 19.9782 59.6497L16.5061 63.705C20.2901 65.224 24.3997 66.0378 28.6449 66.0378C46.5751 66.0378 61.1688 51.4441 61.1688 33.5003C61.1688 15.5566 46.5751 0.962891 28.6449 0.962891Z" fill="#9ACF84"></path><path d="M7.45947 58.1996C8.40888 59.0269 9.41253 59.8 10.4569 60.5052L14.2409 56.9789C13.3096 56.4002 12.4099 55.7673 11.5419 55.0801L7.45947 58.1996Z" fill="#9ACF84"></path><path d="M7.79875 51.4844L3.71631 54.414C4.5979 55.4719 5.5473 56.462 6.55096 57.3978L10.6198 54.3055C9.61618 53.4374 8.68034 52.488 7.79875 51.4844Z" fill="#9ACF84"></path><path d="M7.03908 50.5631C6.38806 49.7402 5.78225 48.8722 5.22165 47.959L0.962891 50.5902C1.58679 51.6029 2.25589 52.5704 2.9702 53.4927L7.03908 50.5631Z" fill="#9ACF84"></path><path d="M11.4878 61.1686C12.722 61.9417 14.0241 62.6334 15.3668 63.2302L18.7846 59.2155C17.5911 58.768 16.4383 58.2119 15.3125 57.6016L11.4878 61.1686Z" fill="#9ACF84"></path><path d="M41.0142 39.7537C41.0142 44.8669 37.0809 47.905 31.6829 48.5424V54.8356H26.6103V48.4611C22.772 47.905 19.0965 46.2639 16.3975 43.9853L19.0558 38.533C22.0939 41.232 26.4069 42.9681 29.5264 42.9681C32.2661 42.9681 33.9208 41.9509 33.9208 40.1334C33.9208 34.5591 18.1742 37.8142 18.1742 27.3436C18.1742 22.8271 21.47 19.7077 26.6103 18.8532V12.7363H31.6829V18.6905C35.1007 19.0295 38.3965 20.2095 40.8378 21.8099L38.2745 27.3436C35.1414 25.4855 31.4252 24.3055 29.0652 24.3055C26.8273 24.3055 25.3083 25.1057 25.3083 26.7061C25.3083 32.1584 41.0549 29.1203 41.0142 39.7537Z" fill="#9ACF84"></path></svg>